<mxfile host="65bd71144e">
    <diagram id="W4-3uyXGZDc_pVLg58_1" name="第 1 页">
        <mxGraphModel dx="564" dy="468" grid="1" gridSize="10" guides="1" tooltips="1" connect="1" arrows="1" fold="1" page="1" pageScale="1" pageWidth="1169" pageHeight="827" math="0" shadow="0">
            <root>
                <mxCell id="0"/>
                <mxCell id="1" parent="0"/>
                <mxCell id="2" value="" style="shape=curlyBracket;whiteSpace=wrap;html=1;rounded=1;size=0.5;" vertex="1" parent="1">
                    <mxGeometry x="200" y="100" width="20" height="380" as="geometry"/>
                </mxCell>
                <mxCell id="3" value="data" style="text;html=1;align=center;verticalAlign=middle;resizable=0;points=[];autosize=1;strokeColor=none;fillColor=none;" vertex="1" parent="1">
                    <mxGeometry x="160" y="250" width="40" height="20" as="geometry"/>
                </mxCell>
                <mxCell id="4" value="database" style="text;html=1;align=center;verticalAlign=middle;resizable=0;points=[];autosize=1;strokeColor=none;fillColor=none;" vertex="1" parent="1">
                    <mxGeometry x="220" y="90" width="60" height="20" as="geometry"/>
                </mxCell>
                <mxCell id="5" value="" style="shape=curlyBracket;whiteSpace=wrap;html=1;rounded=1;" vertex="1" parent="1">
                    <mxGeometry x="280" y="60" width="20" height="90" as="geometry"/>
                </mxCell>
                <mxCell id="7" value="database1" style="text;html=1;align=center;verticalAlign=middle;resizable=0;points=[];autosize=1;strokeColor=none;fillColor=none;" vertex="1" parent="1">
                    <mxGeometry x="300" y="50" width="70" height="20" as="geometry"/>
                </mxCell>
                <mxCell id="9" value="database2" style="text;html=1;align=center;verticalAlign=middle;resizable=0;points=[];autosize=1;strokeColor=none;fillColor=none;" vertex="1" parent="1">
                    <mxGeometry x="300" y="140" width="70" height="20" as="geometry"/>
                </mxCell>
                <mxCell id="11" value="" style="shape=curlyBracket;whiteSpace=wrap;html=1;rounded=1;" vertex="1" parent="1">
                    <mxGeometry x="370" y="15" width="20" height="90" as="geometry"/>
                </mxCell>
                <mxCell id="14" value="Table1" style="text;html=1;align=center;verticalAlign=middle;resizable=0;points=[];autosize=1;strokeColor=none;fillColor=none;" vertex="1" parent="1">
                    <mxGeometry x="390" y="10" width="50" height="20" as="geometry"/>
                </mxCell>
                <mxCell id="15" value="Table2" style="text;html=1;align=center;verticalAlign=middle;resizable=0;points=[];autosize=1;strokeColor=none;fillColor=none;" vertex="1" parent="1">
                    <mxGeometry x="390" y="95" width="50" height="20" as="geometry"/>
                </mxCell>
                <mxCell id="24" value="database" style="text;html=1;align=center;verticalAlign=middle;resizable=0;points=[];autosize=1;strokeColor=none;fillColor=none;" vertex="1" parent="1">
                    <mxGeometry x="220" y="90" width="60" height="20" as="geometry"/>
                </mxCell>
                <mxCell id="25" value="" style="shape=curlyBracket;whiteSpace=wrap;html=1;rounded=1;" vertex="1" parent="1">
                    <mxGeometry x="280" y="60" width="20" height="90" as="geometry"/>
                </mxCell>
                <mxCell id="26" value="database1" style="text;html=1;align=center;verticalAlign=middle;resizable=0;points=[];autosize=1;strokeColor=none;fillColor=none;" vertex="1" parent="1">
                    <mxGeometry x="300" y="50" width="70" height="20" as="geometry"/>
                </mxCell>
                <mxCell id="27" value="database2" style="text;html=1;align=center;verticalAlign=middle;resizable=0;points=[];autosize=1;strokeColor=none;fillColor=none;" vertex="1" parent="1">
                    <mxGeometry x="300" y="140" width="70" height="20" as="geometry"/>
                </mxCell>
                <mxCell id="28" value="" style="shape=curlyBracket;whiteSpace=wrap;html=1;rounded=1;" vertex="1" parent="1">
                    <mxGeometry x="370" y="15" width="20" height="90" as="geometry"/>
                </mxCell>
                <mxCell id="29" value="Table1" style="text;html=1;align=center;verticalAlign=middle;resizable=0;points=[];autosize=1;strokeColor=none;fillColor=none;" vertex="1" parent="1">
                    <mxGeometry x="390" y="10" width="50" height="20" as="geometry"/>
                </mxCell>
                <mxCell id="30" value="Table2" style="text;html=1;align=center;verticalAlign=middle;resizable=0;points=[];autosize=1;strokeColor=none;fillColor=none;" vertex="1" parent="1">
                    <mxGeometry x="390" y="95" width="50" height="20" as="geometry"/>
                </mxCell>
                <mxCell id="31" value="index" style="text;html=1;align=center;verticalAlign=middle;resizable=0;points=[];autosize=1;strokeColor=none;fillColor=none;" vertex="1" parent="1">
                    <mxGeometry x="220" y="240" width="40" height="20" as="geometry"/>
                </mxCell>
                <mxCell id="32" value="" style="shape=curlyBracket;whiteSpace=wrap;html=1;rounded=1;" vertex="1" parent="1">
                    <mxGeometry x="280" y="205" width="20" height="90" as="geometry"/>
                </mxCell>
                <mxCell id="33" value="database1" style="text;html=1;align=center;verticalAlign=middle;resizable=0;points=[];autosize=1;strokeColor=none;fillColor=none;" vertex="1" parent="1">
                    <mxGeometry x="300" y="195" width="70" height="20" as="geometry"/>
                </mxCell>
                <mxCell id="34" value="database2" style="text;html=1;align=center;verticalAlign=middle;resizable=0;points=[];autosize=1;strokeColor=none;fillColor=none;" vertex="1" parent="1">
                    <mxGeometry x="300" y="285" width="70" height="20" as="geometry"/>
                </mxCell>
                <mxCell id="35" value="" style="shape=curlyBracket;whiteSpace=wrap;html=1;rounded=1;" vertex="1" parent="1">
                    <mxGeometry x="370" y="160" width="20" height="90" as="geometry"/>
                </mxCell>
                <mxCell id="36" value="Table1" style="text;html=1;align=center;verticalAlign=middle;resizable=0;points=[];autosize=1;strokeColor=none;fillColor=none;" vertex="1" parent="1">
                    <mxGeometry x="395" y="150" width="50" height="20" as="geometry"/>
                </mxCell>
                <mxCell id="37" value="Table2" style="text;html=1;align=center;verticalAlign=middle;resizable=0;points=[];autosize=1;strokeColor=none;fillColor=none;" vertex="1" parent="1">
                    <mxGeometry x="390" y="240" width="50" height="20" as="geometry"/>
                </mxCell>
                <mxCell id="38" value="PCB" style="text;html=1;align=center;verticalAlign=middle;resizable=0;points=[];autosize=1;strokeColor=none;fillColor=none;" vertex="1" parent="1">
                    <mxGeometry x="220" y="385" width="40" height="20" as="geometry"/>
                </mxCell>
                <mxCell id="39" value="" style="shape=curlyBracket;whiteSpace=wrap;html=1;rounded=1;" vertex="1" parent="1">
                    <mxGeometry x="280" y="350" width="20" height="90" as="geometry"/>
                </mxCell>
                <mxCell id="40" value="database1" style="text;html=1;align=center;verticalAlign=middle;resizable=0;points=[];autosize=1;strokeColor=none;fillColor=none;" vertex="1" parent="1">
                    <mxGeometry x="300" y="340" width="70" height="20" as="geometry"/>
                </mxCell>
                <mxCell id="41" value="database2" style="text;html=1;align=center;verticalAlign=middle;resizable=0;points=[];autosize=1;strokeColor=none;fillColor=none;" vertex="1" parent="1">
                    <mxGeometry x="300" y="430" width="70" height="20" as="geometry"/>
                </mxCell>
                <mxCell id="42" value="" style="shape=curlyBracket;whiteSpace=wrap;html=1;rounded=1;" vertex="1" parent="1">
                    <mxGeometry x="370" y="305" width="20" height="90" as="geometry"/>
                </mxCell>
                <mxCell id="43" value="Table1" style="text;html=1;align=center;verticalAlign=middle;resizable=0;points=[];autosize=1;strokeColor=none;fillColor=none;" vertex="1" parent="1">
                    <mxGeometry x="390" y="300" width="50" height="20" as="geometry"/>
                </mxCell>
                <mxCell id="44" value="Table2" style="text;html=1;align=center;verticalAlign=middle;resizable=0;points=[];autosize=1;strokeColor=none;fillColor=none;" vertex="1" parent="1">
                    <mxGeometry x="390" y="385" width="50" height="20" as="geometry"/>
                </mxCell>
                <mxCell id="45" value="log" style="text;html=1;align=center;verticalAlign=middle;resizable=0;points=[];autosize=1;strokeColor=none;fillColor=none;" vertex="1" parent="1">
                    <mxGeometry x="220" y="460" width="30" height="20" as="geometry"/>
                </mxCell>
                <mxCell id="47" value="" style="endArrow=none;html=1;exitX=1.087;exitY=0.53;exitDx=0;exitDy=0;exitPerimeter=0;entryX=0.1;entryY=0.5;entryDx=0;entryDy=0;entryPerimeter=0;" edge="1" parent="1" source="38" target="39">
                    <mxGeometry width="50" height="50" relative="1" as="geometry">
                        <mxPoint x="260" y="410" as="sourcePoint"/>
                        <mxPoint x="310" y="360" as="targetPoint"/>
                    </mxGeometry>
                </mxCell>
                <mxCell id="55" value="" style="endArrow=none;html=1;exitX=1.104;exitY=0.488;exitDx=0;exitDy=0;exitPerimeter=0;entryX=0.1;entryY=0.5;entryDx=0;entryDy=0;entryPerimeter=0;" edge="1" parent="1" source="31" target="32">
                    <mxGeometry width="50" height="50" relative="1" as="geometry">
                        <mxPoint x="273.48" y="405.6" as="sourcePoint"/>
                        <mxPoint x="292" y="405" as="targetPoint"/>
                    </mxGeometry>
                </mxCell>
                <mxCell id="56" value="" style="endArrow=none;html=1;exitX=1.125;exitY=0.53;exitDx=0;exitDy=0;exitPerimeter=0;" edge="1" parent="1" source="45">
                    <mxGeometry width="50" height="50" relative="1" as="geometry">
                        <mxPoint x="283.48" y="415.6" as="sourcePoint"/>
                        <mxPoint x="290" y="471" as="targetPoint"/>
                    </mxGeometry>
                </mxCell>
                <mxCell id="57" value="logFile" style="text;html=1;align=center;verticalAlign=middle;resizable=0;points=[];autosize=1;strokeColor=none;fillColor=none;" vertex="1" parent="1">
                    <mxGeometry x="290" y="460" width="50" height="20" as="geometry"/>
                </mxCell>
            </root>
        </mxGraphModel>
    </diagram>
</mxfile>